<svg xmlns="http://www.w3.org/2000/svg" viewBox="0 0 512 512" role="img" aria-label="NiceOutfit icon">
  <rect width="512" height="512" rx="116" fill="#fbf7ef"/>
  <path d="M159 171c26-31 63-47 97-47s71 16 97 47l-33 43c-13-15-27-24-43-29v169h-42V185c-16 5-30 14-43 29l-33-43Z" fill="#201d1b"/>
  <path d="M150 171c-20 21-32 46-36 76l47 12c5-21 14-37 31-52l-42-36Zm212 0 42 36c17 15 26 31 31 52l47-12c-4-30-16-55-36-76l-84 0Z" fill="#c98f91"/>
  <path d="M188 354h136c8 0 15 7 15 15v19H173v-19c0-8 7-15 15-15Z" fill="#b8aa9a"/>
</svg>
